<svg width="1315" height="340" viewBox="0 0 1315 340" xmlns="http://www.w3.org/2000/svg" role="img" aria-label="NOLANI AI &amp; IT">
<rect width="1315" height="340" fill="#0F172A"/>
<g transform="translate(48.00,82.00) scale(0.343750)"><rect width="512" height="512" rx="112" fill="#0D9488"/><g stroke="#FFFFFF" stroke-width="42" fill="none" stroke-linecap="round" stroke-linejoin="round"><path d="M168 360 V152"/><path d="M344 360 V152"/><path d="M168 152 L344 360"/></g><circle cx="344" cy="152" r="26" fill="#7FE9DE"/></g>
<g transform="translate(264.00,190.00) scale(0.131054,-0.131054)">
<path transform="translate(0,0)" d="M690 0H519L233 433V0H62V702H233L519 267V702H690Z" fill="#FFFFFF"/>
<path transform="translate(792,0)" d="M33 353Q33 456 81.5 538.0Q130 620 212.5 666.0Q295 712 394 712Q493 712 575.5 666.0Q658 620 705.5 538.0Q753 456 753 353Q753 250 705.0 167.5Q657 85 575.0 39.0Q493 -7 394 -7Q295 -7 212.5 39.0Q130 85 81.5 167.5Q33 250 33 353ZM579 353Q579 446 528.5 501.5Q478 557 394 557Q309 557 258.5 502.0Q208 447 208 353Q208 260 258.5 204.5Q309 149 394 149Q478 149 528.5 205.0Q579 261 579 353Z" fill="#FFFFFF"/>
<path transform="translate(1618,0)" d="M233 132H457V0H62V702H233Z" fill="#FFFFFF"/>
<path transform="translate(2135,0)" d="M499 124H237L195 0H16L270 702H468L722 0H541ZM455 256 368 513 282 256Z" fill="#FFFFFF"/>
<path transform="translate(2912,0)" d="M690 0H519L233 433V0H62V702H233L519 267V702H690Z" fill="#FFFFFF"/>
<path transform="translate(3704,0)" d="M233 702V0H62V702Z" fill="#FFFFFF"/>
</g>
<g transform="translate(824.78,190.00) scale(0.131054,-0.131054)">
<path transform="translate(0,0)" d="M499 124H237L195 0H16L270 702H468L722 0H541ZM455 256 368 513 282 256Z" fill="#2DD4BF"/>
<path transform="translate(777,0)" d="M233 702V0H62V702Z" fill="#2DD4BF"/>
<path transform="translate(1364,0)" d="M599 0 534 63Q437 -11 302 -11Q221 -11 161.0 15.5Q101 42 68.5 90.5Q36 139 36 204Q36 270 71.5 323.5Q107 377 178 411Q152 443 141.0 472.5Q130 502 130 537Q130 587 156.0 628.0Q182 669 231.5 692.5Q281 716 349 716Q418 716 466.0 691.0Q514 666 538.0 624.0Q562 582 560 532H399Q400 559 385.5 573.5Q371 588 347 588Q323 588 307.0 574.0Q291 560 291 538Q291 517 304.5 494.0Q318 471 347 441L518 274Q520 279 523.5 286.0Q527 293 531 302L568 365H739L691 278Q664 219 629 166L798 0ZM429 165 273 316Q201 279 201 216Q201 178 230.5 152.5Q260 127 310 127Q377 127 429 165Z" fill="#2DD4BF"/>
<path transform="translate(2454,0)" d="M233 702V0H62V702Z" fill="#2DD4BF"/>
<path transform="translate(2789,0)" d="M567 702V565H381V0H210V565H24V702Z" fill="#2DD4BF"/>
</g>
<g transform="translate(266.00,232.00) scale(0.031339,-0.031339)">
<path transform="translate(0,0)" d="M189 603V399H429V306H189V93H459V0H75V696H459V603Z" fill="#94A3B8"/>
<path transform="translate(644,0)" d="M969 325V0H856V308Q856 382 819.0 421.5Q782 461 718 461Q654 461 616.5 421.5Q579 382 579 308V0H466V308Q466 382 429.0 421.5Q392 461 328 461Q264 461 226.5 421.5Q189 382 189 308V0H75V551H189V488Q217 522 260.0 541.0Q303 560 352 560Q418 560 470.0 532.0Q522 504 550 451Q575 501 628.0 530.5Q681 560 742 560Q807 560 858.5 533.0Q910 506 939.5 453.0Q969 400 969 325Z" fill="#94A3B8"/>
<path transform="translate(1803,0)" d="M381 560Q453 560 512.5 524.5Q572 489 606.0 425.0Q640 361 640 278Q640 195 606.0 129.5Q572 64 512.5 27.5Q453 -9 381 -9Q318 -9 269.0 16.5Q220 42 189 80V-262H75V551H189V470Q218 508 268.0 534.0Q318 560 381 560ZM356 461Q313 461 274.5 439.0Q236 417 212.5 375.0Q189 333 189 276Q189 219 212.5 176.5Q236 134 274.5 112.0Q313 90 356 90Q400 90 438.5 112.5Q477 135 500.5 178.0Q524 221 524 278Q524 335 500.5 376.5Q477 418 438.5 439.5Q400 461 356 461Z" fill="#94A3B8"/>
<path transform="translate(2601,0)" d="M38 276Q38 360 75.0 425.0Q112 490 176.0 525.0Q240 560 319 560Q398 560 462.0 525.0Q526 490 563.0 425.0Q600 360 600 276Q600 192 562.0 127.0Q524 62 458.5 26.5Q393 -9 314 -9Q236 -9 173.0 26.5Q110 62 74.0 126.5Q38 191 38 276ZM483 276Q483 336 460.0 377.5Q437 419 399.0 440.0Q361 461 317 461Q273 461 235.5 440.0Q198 419 176.0 377.5Q154 336 154 276Q154 187 199.5 138.5Q245 90 314 90Q358 90 396.5 111.0Q435 132 459.0 174.0Q483 216 483 276Z" fill="#94A3B8"/>
<path transform="translate(3359,0)" d="M815 551 644 0H524L413 407L302 0H182L10 551H126L241 108L358 551H477L589 110L703 551Z" fill="#94A3B8"/>
<path transform="translate(4304,0)" d="M576 233H155Q160 167 204.0 127.0Q248 87 312 87Q404 87 442 164H565Q540 88 474.5 39.5Q409 -9 312 -9Q233 -9 170.5 26.5Q108 62 72.5 126.5Q37 191 37 276Q37 361 71.5 425.5Q106 490 168.5 525.0Q231 560 312 560Q390 560 451.0 526.0Q512 492 546.0 430.5Q580 369 580 289Q580 258 576 233ZM461 325Q460 388 416.0 426.0Q372 464 307 464Q248 464 206.0 426.5Q164 389 156 325Z" fill="#94A3B8"/>
<path transform="translate(5041,0)" d="M354 560V442H325Q258 442 223.5 408.0Q189 374 189 290V0H75V551H189V471Q214 513 255.5 536.5Q297 560 354 560Z" fill="#94A3B8"/>
<path transform="translate(5545,0)" d="M60 697Q60 728 81.0 749.0Q102 770 133 770Q163 770 184.0 749.0Q205 728 205 697Q205 666 184.0 645.0Q163 624 133 624Q102 624 81.0 645.0Q60 666 60 697ZM189 551V0H75V551Z" fill="#94A3B8"/>
<path transform="translate(5929,0)" d="M579 325V0H466V308Q466 382 429.0 421.5Q392 461 328 461Q264 461 226.5 421.5Q189 382 189 308V0H75V551H189V488Q217 522 260.5 541.0Q304 560 353 560Q418 560 469.5 533.0Q521 506 550.0 453.0Q579 400 579 325Z" fill="#94A3B8"/>
<path transform="translate(6698,0)" d="M488 471V551H603V-9Q603 -85 571.0 -144.5Q539 -204 478.5 -238.0Q418 -272 334 -272Q222 -272 148.0 -219.5Q74 -167 64 -77H177Q190 -120 232.5 -146.5Q275 -173 334 -173Q403 -173 445.5 -131.0Q488 -89 488 -9V83Q459 44 409.5 17.5Q360 -9 297 -9Q225 -9 165.5 27.5Q106 64 71.5 129.5Q37 195 37 278Q37 361 71.5 425.0Q106 489 165.5 524.5Q225 560 297 560Q361 560 410.5 534.5Q460 509 488 471ZM321 461Q277 461 239.0 439.5Q201 418 177.5 376.5Q154 335 154 278Q154 221 177.5 178.0Q201 135 239.5 112.5Q278 90 321 90Q365 90 403.0 112.0Q441 134 464.5 176.5Q488 219 488 276Q488 333 464.5 375.0Q441 417 403.0 439.0Q365 461 321 461Z" fill="#94A3B8"/>
<path transform="translate(7876,0)" d="M671 345Q671 239 625.5 161.0Q580 83 496.5 41.5Q413 0 302 0H75V695H302Q413 695 496.5 652.5Q580 610 625.5 530.5Q671 451 671 345ZM554 345Q554 466 489.0 534.0Q424 602 302 602H189V93H302Q424 93 489.0 159.0Q554 225 554 345Z" fill="#94A3B8"/>
<path transform="translate(8705,0)" d="M60 697Q60 728 81.0 749.0Q102 770 133 770Q163 770 184.0 749.0Q205 728 205 697Q205 666 184.0 645.0Q163 624 133 624Q102 624 81.0 645.0Q60 666 60 697ZM189 551V0H75V551Z" fill="#94A3B8"/>
<path transform="translate(9089,0)" d="M488 471V551H603V-9Q603 -85 571.0 -144.5Q539 -204 478.5 -238.0Q418 -272 334 -272Q222 -272 148.0 -219.5Q74 -167 64 -77H177Q190 -120 232.5 -146.5Q275 -173 334 -173Q403 -173 445.5 -131.0Q488 -89 488 -9V83Q459 44 409.5 17.5Q360 -9 297 -9Q225 -9 165.5 27.5Q106 64 71.5 129.5Q37 195 37 278Q37 361 71.5 425.0Q106 489 165.5 524.5Q225 560 297 560Q361 560 410.5 534.5Q460 509 488 471ZM321 461Q277 461 239.0 439.5Q201 418 177.5 376.5Q154 335 154 278Q154 221 177.5 178.0Q201 135 239.5 112.5Q278 90 321 90Q365 90 403.0 112.0Q441 134 464.5 176.5Q488 219 488 276Q488 333 464.5 375.0Q441 417 403.0 439.0Q365 461 321 461Z" fill="#94A3B8"/>
<path transform="translate(9887,0)" d="M60 697Q60 728 81.0 749.0Q102 770 133 770Q163 770 184.0 749.0Q205 728 205 697Q205 666 184.0 645.0Q163 624 133 624Q102 624 81.0 645.0Q60 666 60 697ZM189 551V0H75V551Z" fill="#94A3B8"/>
<path transform="translate(10271,0)" d="M208 458V153Q208 122 222.5 108.5Q237 95 272 95H342V0H252Q175 0 134.0 36.0Q93 72 93 153V458H28V551H93V688H208V551H342V458Z" fill="#94A3B8"/>
<path transform="translate(10763,0)" d="M297 560Q362 560 410.5 534.5Q459 509 488 471V551H603V0H488V82Q459 43 409.0 17.0Q359 -9 295 -9Q224 -9 165.0 27.5Q106 64 71.5 129.5Q37 195 37 278Q37 361 71.5 425.0Q106 489 165.5 524.5Q225 560 297 560ZM321 461Q277 461 239.0 439.5Q201 418 177.5 376.5Q154 335 154 278Q154 221 177.5 178.0Q201 135 239.5 112.5Q278 90 321 90Q365 90 403.0 112.0Q441 134 464.5 176.5Q488 219 488 276Q488 333 464.5 375.0Q441 417 403.0 439.0Q365 461 321 461Z" fill="#94A3B8"/>
<path transform="translate(11561,0)" d="M189 740V0H75V740Z" fill="#94A3B8"/>
<path transform="translate(12325,0)" d="M315 282H189V0H75V695H315Q395 695 450.5 667.5Q506 640 533.5 593.0Q561 546 561 488Q561 435 536.0 388.0Q511 341 456.0 311.5Q401 282 315 282ZM444 488Q444 602 315 602H189V375H315Q380 375 412.0 404.5Q444 434 444 488Z" fill="#94A3B8"/>
<path transform="translate(13040,0)" d="M576 233H155Q160 167 204.0 127.0Q248 87 312 87Q404 87 442 164H565Q540 88 474.5 39.5Q409 -9 312 -9Q233 -9 170.5 26.5Q108 62 72.5 126.5Q37 191 37 276Q37 361 71.5 425.5Q106 490 168.5 525.0Q231 560 312 560Q390 560 451.0 526.0Q512 492 546.0 430.5Q580 369 580 289Q580 258 576 233ZM461 325Q460 388 416.0 426.0Q372 464 307 464Q248 464 206.0 426.5Q164 389 156 325Z" fill="#94A3B8"/>
<path transform="translate(13777,0)" d="M354 560V442H325Q258 442 223.5 408.0Q189 374 189 290V0H75V551H189V471Q214 513 255.5 536.5Q297 560 354 560Z" fill="#94A3B8"/>
<path transform="translate(14281,0)" d="M306 458H204V0H89V458H24V551H89V590Q89 685 139.5 728.5Q190 772 298 772V677Q246 677 225.0 657.5Q204 638 204 590V551H306Z" fill="#94A3B8"/>
<path transform="translate(14733,0)" d="M38 276Q38 360 75.0 425.0Q112 490 176.0 525.0Q240 560 319 560Q398 560 462.0 525.0Q526 490 563.0 425.0Q600 360 600 276Q600 192 562.0 127.0Q524 62 458.5 26.5Q393 -9 314 -9Q236 -9 173.0 26.5Q110 62 74.0 126.5Q38 191 38 276ZM483 276Q483 336 460.0 377.5Q437 419 399.0 440.0Q361 461 317 461Q273 461 235.5 440.0Q198 419 176.0 377.5Q154 336 154 276Q154 187 199.5 138.5Q245 90 314 90Q358 90 396.5 111.0Q435 132 459.0 174.0Q483 216 483 276Z" fill="#94A3B8"/>
<path transform="translate(15491,0)" d="M354 560V442H325Q258 442 223.5 408.0Q189 374 189 290V0H75V551H189V471Q214 513 255.5 536.5Q297 560 354 560Z" fill="#94A3B8"/>
<path transform="translate(15995,0)" d="M969 325V0H856V308Q856 382 819.0 421.5Q782 461 718 461Q654 461 616.5 421.5Q579 382 579 308V0H466V308Q466 382 429.0 421.5Q392 461 328 461Q264 461 226.5 421.5Q189 382 189 308V0H75V551H189V488Q217 522 260.0 541.0Q303 560 352 560Q418 560 470.0 532.0Q522 504 550 451Q575 501 628.0 530.5Q681 560 742 560Q807 560 858.5 533.0Q910 506 939.5 453.0Q969 400 969 325Z" fill="#94A3B8"/>
<path transform="translate(17154,0)" d="M297 560Q362 560 410.5 534.5Q459 509 488 471V551H603V0H488V82Q459 43 409.0 17.0Q359 -9 295 -9Q224 -9 165.0 27.5Q106 64 71.5 129.5Q37 195 37 278Q37 361 71.5 425.0Q106 489 165.5 524.5Q225 560 297 560ZM321 461Q277 461 239.0 439.5Q201 418 177.5 376.5Q154 335 154 278Q154 221 177.5 178.0Q201 135 239.5 112.5Q278 90 321 90Q365 90 403.0 112.0Q441 134 464.5 176.5Q488 219 488 276Q488 333 464.5 375.0Q441 417 403.0 439.0Q365 461 321 461Z" fill="#94A3B8"/>
<path transform="translate(17952,0)" d="M579 325V0H466V308Q466 382 429.0 421.5Q392 461 328 461Q264 461 226.5 421.5Q189 382 189 308V0H75V551H189V488Q217 522 260.5 541.0Q304 560 353 560Q418 560 469.5 533.0Q521 506 550.0 453.0Q579 400 579 325Z" fill="#94A3B8"/>
<path transform="translate(18721,0)" d="M307 560Q407 560 472.5 512.5Q538 465 561 377H438Q423 418 390.0 441.0Q357 464 307 464Q237 464 195.5 414.5Q154 365 154 276Q154 187 195.5 137.0Q237 87 307 87Q406 87 438 174H561Q537 90 471.0 40.5Q405 -9 307 -9Q228 -9 167.0 26.5Q106 62 71.5 126.5Q37 191 37 276Q37 361 71.5 425.5Q106 490 167.0 525.0Q228 560 307 560Z" fill="#94A3B8"/>
<path transform="translate(19441,0)" d="M576 233H155Q160 167 204.0 127.0Q248 87 312 87Q404 87 442 164H565Q540 88 474.5 39.5Q409 -9 312 -9Q233 -9 170.5 26.5Q108 62 72.5 126.5Q37 191 37 276Q37 361 71.5 425.5Q106 490 168.5 525.0Q231 560 312 560Q390 560 451.0 526.0Q512 492 546.0 430.5Q580 369 580 289Q580 258 576 233ZM461 325Q460 388 416.0 426.0Q372 464 307 464Q248 464 206.0 426.5Q164 389 156 325Z" fill="#94A3B8"/>
</g>
</svg>